<?xml version="1.0" encoding="UTF-8"?>
<svg version="1.1" xmlns="http://www.w3.org/2000/svg" width="496" height="503">
<path d="M0 0 C3.0236794 2.28619662 3.80331196 3.40993589 5 7 C5.09254093 9.02145985 5.12374155 11.0459069 5.12304783 13.06948376 C5.12503888 14.34689629 5.12702993 15.62430882 5.12908131 16.94043082 C5.12622807 18.36614575 5.12328247 19.7918605 5.12025452 21.21757507 C5.12069033 22.72571656 5.12156543 24.23385797 5.12284368 25.74199897 C5.12508659 29.89680499 5.12107013 34.05158537 5.11606562 38.20638812 C5.1117584 42.68285983 5.11320774 47.15933002 5.1139679 51.63580322 C5.11449296 59.39510632 5.111348 67.15440103 5.10573006 74.91370201 C5.09761266 86.1324323 5.09499959 97.35115852 5.09374207 108.56989143 C5.09155192 126.77031078 5.08489286 144.97072566 5.07543945 163.17114258 C5.06626436 180.85408506 5.059184 198.53702632 5.05493164 216.2199707 C5.05466892 217.30943592 5.05440619 218.39890113 5.05413551 219.52138045 C5.0528305 224.98675454 5.05156678 230.45212865 5.05032361 235.91750276 C5.03995217 281.27833915 5.0215145 326.63916726 5 372 C-41.2 372 -87.4 372 -135 372 C-135.12099405 299.46630933 -135.12099405 299.46630933 -135.14648438 269.20703125 C-135.15235809 262.2807615 -135.15841957 255.35449196 -135.16479492 248.42822266 C-135.16558617 247.560114 -135.16637741 246.69200535 -135.16719264 245.79759037 C-135.1802446 231.77815682 -135.20389828 217.75876014 -135.23145839 203.73934846 C-135.25950174 189.35426393 -135.27617399 174.96919871 -135.28226548 160.58408797 C-135.28638415 151.70595355 -135.29939794 142.82792331 -135.3237494 133.94982095 C-135.33959338 127.86379197 -135.3444034 121.77781693 -135.34050413 115.69176881 C-135.33858049 112.17914182 -135.34155284 108.66669702 -135.35761642 105.15410233 C-135.37490272 101.3463501 -135.36897001 97.53883581 -135.36076355 93.73104858 C-135.36950207 92.62015063 -135.3782406 91.50925267 -135.38724393 90.36469114 C-135.35489016 84.82828018 -135.18038693 80.75627678 -132 76 C-130.24267578 74.28833008 -130.24267578 74.28833008 -128.3203125 72.95703125 C-127.61422852 72.46154785 -126.90814453 71.96606445 -126.18066406 71.45556641 C-125.46104492 70.97522949 -124.74142578 70.49489258 -124 70 C-123.33452148 69.55188965 -122.66904297 69.1037793 -121.98339844 68.64208984 C-119.96002876 67.30293468 -117.92110991 65.99161401 -115.875 64.6875 C-115.14071777 64.21602539 -114.40643555 63.74455078 -113.64990234 63.25878906 C-112.15216807 62.29741651 -110.65364094 61.33727796 -109.15429688 60.37841797 C-107.15779001 59.10096129 -105.1641206 57.8192453 -103.171875 56.53515625 C-98.02069246 53.21553637 -92.86178938 49.90853401 -87.6875 46.625 C-82.26319523 43.17897109 -76.86952471 39.68639556 -71.47607422 36.19238281 C-65.22003706 32.14003509 -58.95214153 28.10646198 -52.6796875 24.07958984 C-50.45436886 22.6493051 -48.23196367 21.21450981 -46.0090332 19.78051758 C-43.0096004 17.84808692 -40.00482953 15.92402376 -37 14 C-36.22865723 13.505 -35.45731445 13.01 -34.66259766 12.5 C-32.15279429 10.89151813 -29.6392861 9.28896388 -27.125 7.6875 C-25.94804565 6.93182739 -25.94804565 6.93182739 -24.74731445 6.16088867 C-9.40688278 -3.57961026 -9.40688278 -3.57961026 0 0 Z M-73 116 C-76.08654312 120.94590644 -76.38599892 124.74577421 -76.1875 130.375 C-76.17396484 131.11105469 -76.16042969 131.84710938 -76.14648438 132.60546875 C-76.11144869 134.40396743 -76.05765288 136.20208422 -76 138 C-77.2065625 137.95359375 -78.413125 137.9071875 -79.65625 137.859375 C-81.27080836 137.82182713 -82.88539378 137.78543023 -84.5 137.75 C-85.29148437 137.71648437 -86.08296875 137.68296875 -86.8984375 137.6484375 C-92.58809353 137.55516445 -97.41236805 138.42164708 -102 142 C-104.32935264 145.84132279 -104.14501656 148.52204736 -103.55078125 152.875 C-102.7855503 155.8273804 -101.43768592 157.22713751 -99 159 C-96.54724859 160.2263757 -94.9494219 160.11415314 -92.2109375 160.09765625 C-90.79941406 160.09282227 -90.79941406 160.09282227 -89.359375 160.08789062 C-88.37453125 160.07951172 -87.3896875 160.07113281 -86.375 160.0625 C-85.38242188 160.05798828 -84.38984375 160.05347656 -83.3671875 160.04882812 C-80.9113984 160.03702145 -78.45572896 160.020554 -76 160 C-76.00666183 161.20189972 -76.01332367 162.40379944 -76.02018738 163.64212036 C-76.08101567 174.97165437 -76.12598098 186.30115522 -76.15543652 197.63081551 C-76.171089 203.45544366 -76.19231994 209.27993993 -76.22631836 215.10449219 C-76.25892626 220.72603527 -76.27685616 226.34745152 -76.28463173 231.96908188 C-76.29017263 234.11327994 -76.30099263 236.2574711 -76.31719017 238.40161514 C-76.33898315 241.40607934 -76.3419661 244.4100202 -76.34057617 247.41455078 C-76.351362 248.30000076 -76.36214783 249.18545074 -76.3732605 250.09773254 C-76.34382117 255.98290307 -75.53251481 260.46748519 -71.1875 264.8125 C-68.30231858 266.37874134 -66.29975409 266.93400492 -63 267 C-58.55513696 264.73399139 -56.06217552 262.52020997 -54 258 C-53.57973559 254.80920542 -53.62083595 251.65042278 -53.65942383 248.4362793 C-53.65898575 247.47969925 -53.65854767 246.5231192 -53.65809631 245.53755188 C-53.66018254 242.38289825 -53.68350614 239.22877929 -53.70703125 236.07421875 C-53.71262778 233.88418366 -53.71689761 231.69414481 -53.71989441 229.50410461 C-53.73133859 223.74516395 -53.76080234 217.98645093 -53.79400635 212.2276001 C-53.82471628 206.34903035 -53.83840174 200.47042375 -53.85351562 194.59179688 C-53.88567225 183.061098 -53.93686365 171.53056794 -54 160 C-53.35973877 160.02094727 -52.71947754 160.04189453 -52.05981445 160.06347656 C-49.14420425 160.14689284 -46.22884548 160.19873969 -43.3125 160.25 C-42.30509766 160.28351563 -41.29769531 160.31703125 -40.25976562 160.3515625 C-34.27922428 160.46222602 -34.27922428 160.46222602 -28.87890625 158.13671875 C-26.78847442 155.75945012 -25.75084367 154.07845906 -25 151 C-25.29768733 147.03083565 -26.53776686 144.11882865 -29 141 C-34.60914307 137.96744394 -39.13722345 137.61450581 -45.4375 137.8125 C-46.26443359 137.82603516 -47.09136719 137.83957031 -47.94335938 137.85351562 C-49.9625264 137.88853008 -51.98135318 137.94232438 -54 138 C-53.96519531 136.99839844 -53.93039062 135.99679688 -53.89453125 134.96484375 C-53.53634381 125.08149994 -53.53634381 125.08149994 -57 116 C-59.74328372 113.25671628 -61.97798204 113.3031725 -65.74609375 112.9765625 C-69.02163177 113.01062355 -70.58922904 113.80194413 -73 116 Z " fill="#FEFEFE" transform="translate(312,51)"/>
<path d="M0 0 C10.12193222 2.24931827 10.12193222 2.24931827 15.2109375 4.328125 C16.3553833 4.79105957 17.4998291 5.25399414 18.67895508 5.73095703 C19.8986499 6.23224121 21.11834473 6.73352539 22.375 7.25 C23.68417946 7.78184965 24.99367667 8.31291774 26.3034668 8.84326172 C29.08771853 9.9712011 31.87064867 11.10232061 34.65283203 12.23535156 C41.283136 14.93147934 47.93241521 17.5802402 54.57992554 20.23358154 C58.26755791 21.705973 61.95403813 23.18124323 65.640625 24.65625 C67.06314548 25.22527433 68.48567142 25.79428498 69.90820312 26.36328125 C89.45410156 34.18164062 89.45410156 34.18164062 109 42 C109.04685917 57.56917862 109.08205672 73.13834431 109.10362434 88.70757675 C109.11390771 95.93772499 109.12791135 103.16782923 109.15087891 110.39794922 C109.17090331 116.70461663 109.18373777 123.01125216 109.18817699 129.31795049 C109.19076917 132.65287082 109.19787227 135.98762823 109.21146011 139.32253265 C109.22607063 143.05850024 109.22797394 146.79428168 109.22705078 150.53027344 C109.23424133 151.61856949 109.24143188 152.70686554 109.24884033 153.82814026 C109.20183053 171.51855011 109.20183053 171.51855011 105.84288788 176.82958126 C101.90323721 180.59717258 97.66121623 180.73365906 92.5390625 180.70703125 C91.74849457 180.72215256 90.95792664 180.73727386 90.1434021 180.75285339 C87.63697461 180.79558346 85.13175476 180.80455352 82.625 180.8125 C80.91793697 180.83565595 79.21090243 180.86102358 77.50390625 180.88867188 C73.33583145 180.95137825 69.16850457 180.98382826 65 181 C63.67526161 177.02578483 63.88584087 173.23529067 63.91821289 169.09399414 C63.92127945 168.1831456 63.92434601 167.27229706 63.92750549 166.33384705 C63.93466255 164.35477384 63.9440536 162.37570775 63.95540047 160.39665413 C63.97276332 157.26585037 63.98308114 154.13509746 63.99131775 151.0042572 C64.01579706 142.10215439 64.05137358 133.2001201 64.09594727 124.2980957 C64.12270949 118.85466909 64.13976599 113.41128213 64.15081596 107.96780205 C64.15703076 105.89173352 64.16704228 103.8156728 64.18089485 101.73964119 C64.20008229 98.83817625 64.20700315 95.93692017 64.21118164 93.03540039 C64.22432404 91.74558762 64.22432404 91.74558762 64.23773193 90.42971802 C64.23642776 89.63762436 64.2351236 88.8455307 64.23377991 88.0294342 C64.23692231 87.34382951 64.24006472 86.65822481 64.24330235 85.95184422 C63.94833575 83.58553393 63.24343623 82.02898907 62 80 C59.16468909 77.85622834 57.26702362 76.83177333 53.67578125 77.30859375 C51.18463786 78.01862979 49.18730287 78.60012616 47 80 C44.46589879 84.58049839 44.73699426 89.09725599 44.78881836 94.18066406 C44.79078972 95.55460327 44.79078972 95.55460327 44.7928009 96.95629883 C44.79927917 99.97618028 44.81970083 102.99580653 44.83984375 106.015625 C44.84611446 108.11358363 44.85135445 110.21154558 44.85560608 112.30950928 C44.86889987 117.82634933 44.89333566 123.34307838 44.92095947 128.85986328 C44.96411394 137.70477651 44.99372796 146.54972115 45.0170002 155.39470673 C45.02726181 158.49090092 45.04430426 161.58700696 45.06199646 164.6831665 C45.0688202 166.56774822 45.07542902 168.45233072 45.08178711 170.33691406 C45.08852448 171.20443298 45.09526184 172.0719519 45.10220337 172.96575928 C45.10608711 174.97745759 45.05875189 176.98915605 45 179 C34.38292779 189.61707221 15.01093122 180.65884247 0 181 C0 121.27 0 61.54 0 0 Z " fill="#FDFEFE" transform="translate(338,243)"/>
<path d="M0 0 C0 59.4 0 118.8 0 180 C-14.52 180 -29.04 180 -44 180 C-44.03738281 173.04421875 -44.07476562 166.0884375 -44.11328125 158.921875 C-44.14355144 154.51950629 -44.1746931 150.11717848 -44.20898438 145.71484375 C-44.2633489 138.7247928 -44.31445722 131.73482278 -44.34643555 124.74462891 C-44.37241416 119.10999432 -44.4127781 113.47563079 -44.46318626 107.84116364 C-44.47989182 105.68978492 -44.49138306 103.53835929 -44.49761391 101.38692474 C-44.5072148 98.37712581 -44.53522629 95.36802613 -44.56762695 92.35839844 C-44.56619186 91.4657579 -44.56475677 90.57311737 -44.5632782 89.65342712 C-44.63087157 84.88899935 -44.63087157 84.88899935 -46.32389832 80.50494385 C-49.0478707 78.05913431 -51.41065473 77.53840179 -55 77 C-59.94973478 78.32515743 -59.94973478 78.32515743 -63.17929077 82.04057312 C-64.31881292 86.14961974 -64.30830807 90.04190896 -64.31884766 94.28833008 C-64.33391609 95.67930908 -64.33391609 95.67930908 -64.34928894 97.09838867 C-64.38011452 100.15543005 -64.39715446 103.21238386 -64.4140625 106.26953125 C-64.43277463 108.39231621 -64.45234808 110.51509374 -64.4727478 112.63786316 C-64.5240701 118.21910214 -64.56369542 123.80036524 -64.60089111 129.38171387 C-64.64093005 135.07940639 -64.69202293 140.77699859 -64.7421875 146.47460938 C-64.83894801 157.64966911 -64.9233525 168.82478549 -65 180 C-69.73222455 180.07445407 -74.46410411 180.1287447 -79.19677734 180.16479492 C-80.80491072 180.17983176 -82.41300344 180.20026672 -84.02099609 180.22631836 C-86.33962064 180.26292822 -88.65770049 180.27977722 -90.9765625 180.29296875 C-91.68930328 180.30845261 -92.40204407 180.32393646 -93.13638306 180.33988953 C-97.84572099 180.34145821 -101.07272118 179.62330232 -105 177 C-107.58394577 173.4257189 -108.38074724 170.90523612 -108.43237305 166.52157593 C-108.45213699 165.43361221 -108.47190094 164.3456485 -108.49226379 163.22471619 C-108.49868393 162.04116043 -108.50510406 160.85760468 -108.51171875 159.63818359 C-108.53905342 157.75700081 -108.53905342 157.75700081 -108.56694031 155.83781433 C-108.6130335 152.40611908 -108.64570185 148.97484987 -108.67076874 145.54297209 C-108.69312575 142.67735574 -108.72401243 139.81185512 -108.75465012 136.94631732 C-108.82646141 130.18857053 -108.88210431 123.43081848 -108.92822266 116.67285156 C-108.9761475 109.69861243 -109.05360085 102.72512972 -109.14513111 95.75133836 C-109.22257125 89.7623897 -109.28066581 83.77346145 -109.32342052 77.78416502 C-109.34921865 74.20740281 -109.38266158 70.63111676 -109.43515015 67.05463791 C-109.49272657 63.07077375 -109.51004243 59.08729733 -109.5234375 55.10302734 C-109.54605148 53.91542313 -109.56866547 52.72781891 -109.59196472 51.50422668 C-109.58917007 50.42190262 -109.58637543 49.33957855 -109.58349609 48.22445679 C-109.59158295 47.2824259 -109.5996698 46.34039501 -109.60800171 45.36981773 C-109 43 -109 43 -106.58279419 41.22577858 C-104.47182791 40.22392669 -102.41361946 39.27970048 -100.21875 38.484375 C-99.47826416 38.21052979 -98.73777832 37.93668457 -97.97485352 37.65454102 C-96.74980103 37.20679321 -96.74980103 37.20679321 -95.5 36.75 C-85.11126022 32.87255927 -74.83362624 28.73875002 -64.5625 24.5625 C-63.75506348 24.23446381 -62.94762695 23.90642761 -62.11572266 23.56845093 C-53.61517239 20.11398601 -45.12177499 16.6426867 -36.63769531 13.14794922 C-28.56216699 9.82475421 -20.460973 6.57811532 -12.3125 3.4375 C-11.41982422 3.09017822 -10.52714844 2.74285645 -9.60742188 2.38500977 C-8.78435547 2.07104248 -7.96128906 1.7570752 -7.11328125 1.43359375 C-6.38923096 1.15572021 -5.66518066 0.87784668 -4.91918945 0.59155273 C-3 0 -3 0 0 0 Z " fill="#FDFEFE" transform="translate(156,243)"/>
<path d="M0 0 C0 9.24 0 18.48 0 28 C-10.30753679 33.1537684 -20.69978474 37.57093706 -31.50097656 41.54956055 C-37.13575034 43.64041396 -42.69490131 45.89421176 -48.25 48.1875 C-56.98862874 51.79196145 -65.76267406 55.29760753 -74.5625 58.75 C-75.70299805 59.19754639 -76.84349609 59.64509277 -78.01855469 60.10620117 C-81.34411533 61.40825336 -84.67149764 62.70548741 -88 64 C-89.77129272 64.68968872 -89.77129272 64.68968872 -91.57836914 65.39331055 C-92.73071045 65.839729 -93.88305176 66.28614746 -95.0703125 66.74609375 C-96.10559082 67.14755615 -97.14086914 67.54901855 -98.20751953 67.96264648 C-101.44155078 69.16402774 -104.65949636 70.14545256 -108 71 C-109.48661337 66.54015989 -108.95770941 62.28272609 -108.75 57.625 C-108.72292969 56.67882812 -108.69585937 55.73265625 -108.66796875 54.7578125 C-108.28501628 45.96225897 -108.28501628 45.96225897 -105 42 C-99.65025798 37.82720122 -93.86742932 35.78705595 -87.51000977 33.6394043 C-80.67005014 31.30400059 -73.99552413 28.62450143 -67.3125 25.875 C-66.17369385 25.40715088 -65.0348877 24.93930176 -63.86157227 24.45727539 C-61.47583882 23.4770648 -59.09017965 22.4966734 -56.70458984 21.51611328 C-41.45429511 15.26335588 -26.13848237 9.15381674 -10.75 3.25 C-9.44603271 2.74690308 -9.44603271 2.74690308 -8.11572266 2.23364258 C-2.24164616 0 -2.24164616 0 0 0 Z " fill="#FCFEFD" transform="translate(156,191)"/>
<path d="M0 0 C4.75735575 0.79289263 8.08023252 1.66623102 12.4453125 3.44140625 C13.04860886 3.68469666 13.65190521 3.92798706 14.27348328 4.1786499 C16.22632883 4.96762596 18.17562715 5.76498725 20.125 6.5625 C21.48112033 7.11217364 22.83748637 7.66124146 24.1940918 8.2097168 C26.89042733 9.30052495 29.5855757 10.39418602 32.27978516 11.49023438 C37.11440792 13.45516045 41.96331516 15.38385803 46.8125 17.3125 C52.81093672 19.70490118 58.78639108 22.14719123 64.75 24.625 C70.23264833 26.90196435 75.74589018 29.06193919 81.3125 31.125 C104.06678629 39.60017944 104.06678629 39.60017944 109 47 C109.22705078 49.4519043 109.22705078 49.4519043 109.1953125 52.32421875 C109.18886719 53.35224609 109.18242187 54.38027344 109.17578125 55.43945312 C109.15064453 57.04723633 109.15064453 57.04723633 109.125 58.6875 C109.11597656 59.77095703 109.10695313 60.85441406 109.09765625 61.97070312 C109.0740734 64.6473571 109.04116126 67.32356797 109 70 C102.87138653 69.42466078 97.64501238 67.55989446 91.9375 65.3125 C91.00719971 64.95236816 90.07689941 64.59223633 89.1184082 64.22119141 C82.79309091 61.75499086 76.5565363 59.12894943 70.3359375 56.41015625 C66.85997789 54.94081033 63.35405259 53.61552407 59.8125 52.3125 C39.62518296 44.88050384 19.84171281 36.29744354 0 28 C0 18.76 0 9.52 0 0 Z " fill="#FBFEFD" transform="translate(338,191)"/>
<path d="M0 0 C0.33 0 0.66 0 1 0 C1 120.12 1 240.24 1 364 C-45.2 364 -91.4 364 -139 364 C-139.04030303 305.95915261 -139.04030303 305.95915261 -139.04882812 281.33789062 C-139.05078491 275.71525062 -139.05280508 270.09261065 -139.05493164 264.4699707 C-139.05519539 263.76562143 -139.05545914 263.06127216 -139.05573088 262.33557898 C-139.06003664 251.08194615 -139.06789531 239.82831863 -139.0771528 228.5746889 C-139.08662757 216.95680478 -139.09208423 205.33892336 -139.09408849 193.72103554 C-139.09537266 187.22439786 -139.09830793 180.72777204 -139.10573006 174.23113823 C-139.14100439 142.13997372 -138.84854001 110.08059794 -138 78 C-137.67 78 -137.34 78 -137 78 C-136.99826375 78.59843969 -136.9965275 79.19687939 -136.99473864 79.81345361 C-136.89181664 115.24449348 -136.78372722 150.67551388 -136.66888306 186.10651716 C-136.6551127 190.35624895 -136.64138572 194.60598088 -136.62768555 198.85571289 C-136.62495724 199.70179456 -136.62222894 200.54787623 -136.61941796 201.41959674 C-136.57528582 215.13764944 -136.53467192 228.85571044 -136.49534739 242.57377767 C-136.45494962 256.63905958 -136.41079617 270.70432604 -136.36312145 284.76958519 C-136.3337988 293.45574827 -136.30744161 302.14191013 -136.28482103 310.8280933 C-136.26905079 316.77625868 -136.24964827 322.72440514 -136.22733159 328.67254954 C-136.21454547 332.10954975 -136.20341615 335.5465353 -136.19658089 338.98355293 C-136.18835703 342.70105851 -136.17409113 346.41849148 -136.15821838 350.13597107 C-136.15724028 351.2341966 -136.15626217 352.33242212 -136.15525442 353.46392721 C-136.14977998 354.45171921 -136.14430554 355.4395112 -136.1386652 356.45723629 C-136.13600716 357.3165434 -136.13334911 358.1758505 -136.13061053 359.06119722 C-136.21316544 361.00616125 -136.21316544 361.00616125 -135 362 C-90.45 362.33 -45.9 362.66 0 363 C0 243.21 0 123.42 0 0 Z " fill="#E9FEFB" transform="translate(316,59)"/>
<path d="M0 0 C0.99 0.33 1.98 0.66 3 1 C2.34 1 1.68 1 1 1 C1.00607553 1.9052133 1.01215105 2.8104266 1.01841068 3.7430706 C1.16571209 25.74168755 1.30745389 47.74033415 1.4429636 69.73902702 C1.50862921 80.37730726 1.57619512 91.01556917 1.64819336 101.65380859 C1.71092258 110.92319196 1.77012842 120.19258989 1.82505554 129.4620229 C1.85427879 134.37272275 1.8852987 139.28339677 1.92053413 144.19405746 C1.95361172 148.81172961 1.98199482 153.42940632 2.00670624 158.04713058 C2.01663784 159.74593722 2.02831577 161.44473463 2.04183006 163.14351654 C2.05996253 165.45496234 2.0719298 167.76635861 2.08229065 170.07785034 C2.09058679 171.37389128 2.09888292 172.66993221 2.10743046 174.00524712 C2 177 2 177 1 179 C6.51772989 178.88193106 12.03527291 178.75769581 17.55273438 178.62768555 C19.43062542 178.58431211 21.30855652 178.54263882 23.18652344 178.50268555 C25.8822844 178.44504124 28.57784327 178.38133019 31.2734375 178.31640625 C32.53756973 178.29133751 32.53756973 178.29133751 33.82723999 178.26576233 C38.0486661 178.26763856 38.0486661 178.26763856 42 177 C42.33 145.65 42.66 114.3 43 82 C43.66 81.67 44.32 81.34 45 81 C45.02312121 93.7603387 45.04091395 106.52067245 45.05181217 119.28102779 C45.05704149 125.20550715 45.06414001 131.12997222 45.07543945 137.05444336 C45.08626661 142.76672571 45.09227647 148.47899428 45.09487724 154.19128609 C45.0967318 156.37588277 45.100353 158.56047865 45.10573006 160.7450695 C45.11293821 163.79352349 45.11399104 166.84191979 45.11352539 169.89038086 C45.11712067 170.80315796 45.12071594 171.71593506 45.12442017 172.65637207 C45.11405216 178.88594784 45.11405216 178.88594784 44 180 C29.48 180.33 14.96 180.66 0 181 C0 121.27 0 61.54 0 0 Z " fill="#E9FEF9" transform="translate(338,243)"/>
<path d="M0 0 C0.99 0 1.98 0 3 0 C3.04685917 15.56917862 3.08205672 31.13834431 3.10362434 46.70757675 C3.11390771 53.93772499 3.12791135 61.16782923 3.15087891 68.39794922 C3.17090331 74.70461663 3.18373777 81.01125216 3.18817699 87.31795049 C3.19076917 90.65287082 3.19787227 93.98762823 3.21146011 97.32253265 C3.22607063 101.05850024 3.22797394 104.79428168 3.22705078 108.53027344 C3.23783661 110.16271751 3.23783661 110.16271751 3.24884033 111.82814026 C3.22993154 118.94376744 2.88693738 126.10169502 1 133 C0.34 133.33 -0.32 133.66 -1 134 C-0.83734146 132.93728882 -0.67468292 131.87457764 -0.50709534 130.77966309 C0.20544066 125.03483887 0.13160709 119.30621491 0.11352539 113.52539062 C0.11367142 112.29527252 0.11381744 111.06515442 0.1139679 109.79776001 C0.11339326 106.44707637 0.10840025 103.09645541 0.10139394 99.74578285 C0.09511532 96.23575655 0.09455305 92.72572929 0.09336853 89.21569824 C0.09026846 82.57900443 0.08207301 75.94232722 0.07201904 69.3056407 C0.06081667 61.74574642 0.05533708 54.18585133 0.05032361 46.62595081 C0.03988921 31.08395762 0.02231555 15.54198095 0 0 Z " fill="#F1FDF8" transform="translate(444,285)"/>
<path d="M0 0 C0.33 0 0.66 0 1 0 C1.10957031 0.61488281 1.21914062 1.22976562 1.33203125 1.86328125 C1.49058594 2.67152344 1.64914063 3.47976562 1.8125 4.3125 C1.96332031 5.11300781 2.11414063 5.91351563 2.26953125 6.73828125 C3.08740771 9.27063672 3.96014607 10.33009439 6 12 C8.40541929 13.20270964 10.10366591 13.20316663 12.7890625 13.31640625 C13.73007813 13.35830078 14.67109375 13.40019531 15.640625 13.44335938 C16.62546875 13.48267578 17.6103125 13.52199219 18.625 13.5625 C19.61757812 13.60568359 20.61015625 13.64886719 21.6328125 13.69335938 C24.08839838 13.79961069 26.54408703 13.90164964 29 14 C29.01030746 15.20412033 29.02061493 16.40824066 29.03123474 17.64884949 C29.12896762 28.99349035 29.23170169 40.33807634 29.33933926 51.68262768 C29.39451652 57.51504327 29.44792827 63.34746391 29.49731445 69.17993164 C29.54503457 74.80798495 29.59738022 80.43597794 29.65294075 86.06395912 C29.67332963 88.21173921 29.6920484 90.35953582 29.70907402 92.5073452 C29.73319473 95.51431627 29.7632389 98.52117395 29.79467773 101.52807617 C29.80331093 102.86164406 29.80331093 102.86164406 29.81211853 104.22215271 C29.8602933 108.27269935 29.99101708 112.04828983 31 116 C28.44935554 113.7820483 27.62724086 112.29616588 27 109 C26.92622183 107.66453585 26.90144366 106.32574392 26.91770935 104.98834229 C26.92474884 104.2003273 26.93178833 103.41231232 26.93904114 102.60041809 C26.95198715 101.74518051 26.96493317 100.88994293 26.97827148 100.00878906 C26.98787903 99.10112289 26.99748657 98.19345673 27.00738525 97.25828552 C27.04034401 94.26065233 27.08068836 91.2631663 27.12109375 88.265625 C27.14539791 86.18626422 27.16924132 84.106898 27.19264221 82.02752686 C27.25545364 76.55631316 27.3245287 71.08519572 27.39489746 65.61407471 C27.46560741 60.03052145 27.53040846 54.44689999 27.59570312 48.86328125 C27.72467758 37.9087792 27.86026762 26.95436973 28 16 C27.39003174 16.02094727 26.78006348 16.04189453 26.15161133 16.06347656 C23.37207706 16.14692861 20.5928068 16.19875011 17.8125 16.25 C16.85279297 16.28351563 15.89308594 16.31703125 14.90429688 16.3515625 C7.74512708 16.45065136 7.74512708 16.45065136 3.90625 14.12890625 C-0.07236339 9.68557777 -0.22912044 5.84257124 0 0 Z " fill="#EAFEFB" transform="translate(207,197)"/>
<path d="M0 0 C1.5 1 1.5 1 3 3 C3.39898762 6.09215405 3.63009684 8.04027907 3 11 C0.55701712 14.03722197 -1.7663665 15.84424433 -5 18 C-11.93 18 -18.86 18 -26 18 C-26 49.68 -26 81.36 -26 114 C-26.33 114 -26.66 114 -27 114 C-27 81.66 -27 49.32 -27 16 C-19.74 15.67 -12.48 15.34 -5 15 C0.20824919 10.13473037 0.20824919 10.13473037 1 4 C0.6422386 1.72349255 0.6422386 1.72349255 0 0 Z " fill="#E9FEFB" transform="translate(285,195)"/>
<path d="M0 0 C0.66 0 1.32 0 2 0 C1.67 32.01 1.34 64.02 1 97 C-33 97 -33 97 -39 94 C-40.375 91.8125 -40.375 91.8125 -41 90 C-40.34 90 -39.68 90 -39 90 C-39 90.66 -39 91.32 -39 92 C-26.17687916 98.63264871 -20.64338624 95 -1 95 C-0.67 63.65 -0.34 32.3 0 0 Z " fill="#E0FEFC" transform="translate(90,326)"/>
<path d="M0 0 C0.33 0 0.66 0 1 0 C1 5.28 1 10.56 1 16 C-0.82724609 16.05607422 -0.82724609 16.05607422 -2.69140625 16.11328125 C-4.3151329 16.17898117 -5.93882949 16.24542709 -7.5625 16.3125 C-8.76229492 16.34633789 -8.76229492 16.34633789 -9.98632812 16.38085938 C-16.05314839 16.65324722 -21.20504783 17.56568682 -25.9375 21.6875 C-26.288125 22.120625 -26.63875 22.55375 -27 23 C-26.15715355 19.20719099 -25.0634688 18.04569754 -21.875 15.75 C-15.45127655 12.78887841 -7.94684786 13.16861281 -1 13 C-0.67 8.71 -0.34 4.42 0 0 Z " fill="#E8FEF8" transform="translate(235,173)"/>
<path d="M0 0 C0.99 0.33 1.98 0.66 3 1 C3 1.66 3 2.32 3 3 C3.66 3.33 4.32 3.66 5 4 C4.67 9.28 4.34 14.56 4 20 C9.61 20.33 15.22 20.66 21 21 C21 21.33 21 21.66 21 22 C15.06 22 9.12 22 3 22 C2.8046875 18.32161458 2.609375 14.64322917 2.4140625 10.96484375 C2.00194564 7.01863043 1.20243433 3.75882927 0 0 Z " fill="#E6FEF9" transform="translate(255,167)"/>
<path d="M0 0 C0 9.24 0 18.48 0 28 C-0.66 28 -1.32 28 -2 28 C-1.67 19.42 -1.34 10.84 -1 2 C-4.465 3.485 -4.465 3.485 -8 5 C-8.66 4.34 -9.32 3.68 -10 3 C-8.70990357 2.49596232 -7.41786211 1.99690074 -6.125 1.5 C-5.04605469 1.08234375 -5.04605469 1.08234375 -3.9453125 0.65625 C-2 0 -2 0 0 0 Z " fill="#E6FEFA" transform="translate(156,191)"/>
<path d="M0 0 C0 0.33 0 0.66 0 1 C-0.89203125 1.14695313 -1.7840625 1.29390625 -2.703125 1.4453125 C-9.18513099 2.43467932 -9.18513099 2.43467932 -14.75390625 5.53515625 C-15.95976509 7.31463151 -15.95976509 7.31463151 -17 10 C-17.33 9.34 -17.66 8.68 -18 8 C-18.99 7.67 -19.98 7.34 -21 7 C-19.23174858 5.85018626 -17.46030479 4.70528078 -15.6875 3.5625 C-14.70136719 2.92441406 -13.71523438 2.28632812 -12.69921875 1.62890625 C-8.021362 -1.19405506 -5.28956397 -0.89822784 0 0 Z " fill="#ECFEFA" transform="translate(309,50)"/>
<path d="M0 0 C0.99 0.33 1.98 0.66 3 1 C2.34 1 1.68 1 1 1 C1 9.25 1 17.5 1 26 C1.99 26.33 2.98 26.66 4 27 C4 27.66 4 28.32 4 29 C2.68 28.67 1.36 28.34 0 28 C0 18.76 0 9.52 0 0 Z " fill="#E7FEF9" transform="translate(338,191)"/>
<path d="M0 0 C1.5843317 0.08768248 3.16753567 0.19587329 4.75 0.3125 C6.07257813 0.39951172 6.07257813 0.39951172 7.421875 0.48828125 C10.34650898 1.06877678 11.7300586 2.1214278 14 4 C16.14733927 4.70514846 16.14733927 4.70514846 18 5 C18 5.66 18 6.32 18 7 C18.66 7.33 19.32 7.66 20 8 C15.43263559 7.29937517 11.4300495 5.68729793 7.1875 3.9375 C6.49462891 3.65583984 5.80175781 3.37417969 5.08789062 3.08398438 C3.39032376 2.39325027 1.69493688 1.69716272 0 1 C0 0.67 0 0.34 0 0 Z " fill="#EDFEF9" transform="translate(397,242)"/>
<path d="M0 0 C-2.34638956 2.71687212 -4.57176596 3.94515876 -8 5 C-8.66 4.67 -9.32 4.34 -10 4 C-10.33 6.31 -10.66 8.62 -11 11 C-11.33 11 -11.66 11 -12 11 C-12.33 8.69 -12.66 6.38 -13 4 C-3.84615385 -1.92307692 -3.84615385 -1.92307692 0 0 Z " fill="#ECFEF9" transform="translate(60,282)"/>
<path d="M0 0 C0.33 0 0.66 0 1 0 C1 7.26 1 14.52 1 22 C1.99 22.33 2.98 22.66 4 23 C2.68 23.33 1.36 23.66 0 24 C-1.01044795 20.96865616 -1.05032949 19.25604057 -0.87890625 16.11328125 C-0.83056641 15.17548828 -0.78222656 14.23769531 -0.73242188 13.27148438 C-0.67634766 12.29501953 -0.62027344 11.31855469 -0.5625 10.3125 C-0.51029297 9.32443359 -0.45808594 8.33636719 -0.40429688 7.31835938 C-0.27464694 4.87858324 -0.13968258 2.43921895 0 0 Z " fill="#E1FEF9" transform="translate(48,238)"/>
<path d="M0 0 C-0.66 0 -1.32 0 -2 0 C-2.66 1.32 -3.32 2.64 -4 4 C-4.99 4 -5.98 4 -7 4 C-9.67356157 4.28627045 -12.33365575 4.65031551 -15 5 C-12.76504572 2.76504572 -10.97585464 1.9975209 -8.0625 0.8125 C-7.18722656 0.44769531 -6.31195313 0.08289063 -5.41015625 -0.29296875 C-3 -1 -3 -1 0 0 Z " fill="#EAFEFA" transform="translate(93,217)"/>
<path d="M0 0 C0.33 0.66 0.66 1.32 1 2 C0.09507812 2.14695313 0.09507812 2.14695313 -0.828125 2.296875 C-5.70578282 3.20946904 -8.83823388 3.87595723 -12 8 C-12 6.35 -12 4.7 -12 3 C-8.17482487 0.60926555 -4.40334476 0.44033448 0 0 Z " fill="#EFFEFC" transform="translate(249,162)"/>
<path d="M0 0 C0 0.99 0 1.98 0 3 C-3.77578157 5.96668552 -7.39874735 7.68535639 -12 9 C-8.53005564 5.0963126 -4.44775994 2.63411025 0 0 Z " fill="#EAFEFA" transform="translate(230,94)"/>
<path d="M0 0 C-0.66 1.98 -1.32 3.96 -2 6 C-4.66666667 6 -7.33333333 6 -10 6 C-8.71283353 4.99421411 -7.42011342 3.99553202 -6.125 3 C-5.40570313 2.443125 -4.68640625 1.88625 -3.9453125 1.3125 C-2 0 -2 0 0 0 Z " fill="#F0FEFA" transform="translate(256,78)"/>
<path d="M0 0 C4.60853797 0.72008406 8.67237409 2.31295939 13 4 C9.28272326 5.13583456 7.52948291 4.66670026 4 3 C3.67 3.66 3.34 4.32 3 5 C2.87625 4.360625 2.7525 3.72125 2.625 3.0625 C2.315625 2.0415625 2.315625 2.0415625 2 1 C1.34 0.67 0.68 0.34 0 0 Z " fill="#EEFEFB" transform="translate(411,272)"/>
<path d="M0 0 C0.66 0.33 1.32 0.66 2 1 C-4.14285714 6.57142857 -4.14285714 6.57142857 -9 7 C-6.25604436 4.05278838 -3.61662784 1.80831392 0 0 Z " fill="#E8FEF8" transform="translate(205,110)"/>
<path d="M0 0 C0.66 0.33 1.32 0.66 2 1 C1.34 2.98 0.68 4.96 0 7 C-0.99 6.67 -1.98 6.34 -3 6 C-2.42655063 3.13275314 -2.1385485 2.1385485 0 0 Z " fill="#ECFEFA" transform="translate(52,232)"/>
<path d="M0 0 C0 0.66 0 1.32 0 2 C-0.61875 2.28875 -1.2375 2.5775 -1.875 2.875 C-4.13325765 3.93720042 -4.13325765 3.93720042 -6 6 C-6 5.34 -6 4.68 -6 4 C-6.99 3.67 -7.98 3.34 -9 3 C-2.25 0 -2.25 0 0 0 Z " fill="#EDFEF9" transform="translate(135,199)"/>
<path d="M0 0 C1.32 0.66 2.64 1.32 4 2 C-1.41538462 5.07692308 -1.41538462 5.07692308 -4.375 4.6875 C-4.91125 4.460625 -5.4475 4.23375 -6 4 C-4.35 3.67 -2.7 3.34 -1 3 C-0.67 2.01 -0.34 1.02 0 0 Z " fill="#ECFEFA" transform="translate(126,228)"/>
<path d="M0 0 C0.66 0.33 1.32 0.66 2 1 C0.68 2.65 -0.64 4.3 -2 6 C-3.32 5.34 -4.64 4.68 -6 4 C-4.02 2.68 -2.04 1.36 0 0 Z " fill="#F0FEFA" transform="translate(214,104)"/>
</svg>
